#!OML:ASF C:\Vicon Data\Big\jianyuan-13\jianyuan\Session 1\Capture.male.ASF
:FULLY-SPECIFIED
:DEGREES
181
root -7.495473 17.529401 -5.893019 4.360053 1.901380 3.006529
lowerback -10.868605 0.322889 -3.570137 
upperback 0.103456 0.974667 -1.416501 
thorax 6.181913 0.390888 0.680314 
lowerneck -2.022603 -2.807690 2.468501 
upperneck -1.132144 -3.802225 -2.350388 
head -0.106836 -1.912990 -1.144721 
rclavicle 0.000000 0.000000 
rhumerus -48.234975 -17.798551 -79.243457 
rradius 28.391596 
rwrist 28.141554 
rhand -19.616231 -24.185470 
rfingers 0.000000 
rthumb 6.710335 -54.059067 
lclavicle 0.000000 0.000000 
lhumerus -30.609896 33.215797 79.054797 
lradius 27.463559 
lwrist -45.129550 
lhand -21.697148 6.058003 
lfingers 0.000000 
lthumb 4.701176 35.985827 
rfemur -34.774068 -5.469505 16.139617 
rtibia 69.126091 
rfoot -9.601827 -12.785744 
rtoes -27.832667 
lfemur -22.281809 -2.859321 -26.275794 
ltibia 29.718301 
lfoot -9.739772 1.167700 
ltoes -23.785037 
182
root -7.480608 17.530961 -5.827782 4.261360 2.003869 2.961394
lowerback -10.753075 0.182493 -3.485575 
upperback 0.120648 0.768606 -1.360762 
thorax 6.142576 0.292027 0.657725 
lowerneck -1.968346 -2.704733 2.527893 
upperneck -1.038544 -3.664454 -2.498130 
head -0.087578 -1.844201 -1.200990 
rclavicle 0.000000 0.000000 
rhumerus -48.974415 -18.480057 -77.979732 
rradius 27.696865 
rwrist 31.120285 
rhand -20.156796 -22.609639 
rfingers 0.000000 
rthumb 6.188417 -52.498599 
lclavicle 0.000000 0.000000 
lhumerus -29.595340 32.025414 80.245287 
lradius 28.001140 
lwrist -43.438334 
lhand -21.656930 6.069138 
lfingers 0.000000 
lthumb 4.740017 35.996108 
rfemur -35.729980 -5.421227 16.163310 
rtibia 68.443645 
rfoot -10.177604 -12.915916 
rtoes -27.829633 
lfemur -21.990754 -2.993667 -26.291983 
ltibia 29.875577 
lfoot -10.035540 1.106100 
ltoes -23.898871 
183
root -7.467779 17.529205 -5.763880 4.127239 2.141096 2.873177
lowerback -10.593908 0.042770 -3.416959 
upperback 0.168071 0.561658 -1.259461 
thorax 6.109856 0.191074 0.692060 
lowerneck -1.950395 -2.618576 2.559470 
upperneck -0.964732 -3.549473 -2.665180 
head -0.068552 -1.787007 -1.259158 
rclavicle 0.000000 0.000000 
rhumerus -49.608634 -18.868397 -76.963114 
rradius 27.187819 
rwrist 33.324393 
rhand -20.639414 -21.284433 
rfingers 0.000000 
rthumb 5.722455 -51.187093 
lclavicle 0.000000 0.000000 
lhumerus -28.571728 30.600290 81.539515 
lradius 28.678281 
lwrist -41.591095 
lhand -21.519992 6.178733 
lfingers 0.000000 
lthumb 4.872272 36.102665 
rfemur -36.638228 -5.400313 16.240590 
rtibia 67.701613 
rfoot -10.666777 -13.183780 
rtoes -27.395432 
lfemur -21.663529 -3.075919 -26.259289 
ltibia 29.991678 
lfoot -10.319009 1.026342 
ltoes -24.367013 
184
root -7.452261 17.528600 -5.702343 4.019435 2.263602 2.779045
lowerback -10.382920 -0.092508 -3.285326 
upperback 0.155629 0.350606 -1.183272 
thorax 5.985211 0.092194 0.664624 
lowerneck -1.865856 -2.539487 2.588785 
upperneck -0.881386 -3.442060 -2.811727 
head -0.057208 -1.733125 -1.309661 
rclavicle 0.000000 0.000000 
rhumerus -50.105395 -18.700283 -76.650115 
rradius 27.219058 
rwrist 33.408115 
rhand -20.595753 -21.176962 
rfingers 0.000000 
rthumb 5.764632 -51.078458 
lclavicle 0.000000 0.000000 
lhumerus -27.691620 29.135869 82.692250 
lradius 29.418654 
lwrist -39.724573 
lhand -21.305406 6.311147 
lfingers 0.000000 
lthumb 5.079497 36.230275 
rfemur -37.595978 -5.385364 16.331280 
rtibia 66.863249 
rfoot -10.977160 -13.540111 
rtoes -27.999093 
lfemur -21.343755 -3.233568 -26.213461 
ltibia 30.064893 
lfoot -10.454251 0.912550 
ltoes -24.432023 
185
root -7.436358 17.531607 -5.633153 3.912616 2.364882 2.811510
lowerback -10.293650 -0.221754 -3.281754 
upperback 0.214856 0.173055 -1.136998 
thorax 6.003516 0.003606 0.683681 
lowerneck -1.917838 -2.456167 2.501506 
upperneck -0.766694 -3.328421 -2.817065 
head -0.008730 -1.676573 -1.297962 
rclavicle 0.000000 0.000000 
rhumerus -50.478631 -18.488318 -76.419668 
rradius 27.299514 
rwrist 33.200840 
rhand -20.466844 -21.002258 
rfingers 0.000000 
rthumb 5.889141 -50.900452 
lclavicle 0.000000 0.000000 
lhumerus -26.730922 27.986571 83.739623 
lradius 29.986794 
lwrist -38.490353 
lhand -21.333563 6.303160 
lfingers 0.000000 
lthumb 5.052319 36.222941 
rfemur -38.492412 -5.459452 16.282277 
rtibia 65.936242 
rfoot -11.245723 -13.912273 
rtoes -28.537814 
lfemur -20.951545 -3.292889 -26.321759 
ltibia 30.100543 
lfoot -10.835544 0.747402 
ltoes -23.559381 
186
root -7.422453 17.536656 -5.570690 3.856264 2.460448 2.705040
lowerback -10.153388 -0.336517 -3.205040 
upperback 0.216581 -0.002470 -1.016155 
thorax 5.932473 -0.081252 0.740809 
lowerneck -1.860921 -2.373633 2.469138 
upperneck -0.735691 -3.216375 -2.940390 
head -0.007047 -1.620407 -1.330494 
rclavicle 0.000000 0.000000 
rhumerus -50.957226 -18.222780 -76.141044 
rradius 27.398734 
rwrist 33.255711 
rhand -20.361393 -20.955123 
rfingers 0.000000 
rthumb 5.990944 -50.850386 
lclavicle 0.000000 0.000000 
lhumerus -25.798579 27.018050 84.696208 
lradius 30.465547 
lwrist -37.448843 
lhand -21.297704 6.268898 
lfingers 0.000000 
lthumb 5.086903 36.187865 
rfemur -39.423081 -5.368452 16.329188 
rtibia 64.925011 
rfoot -11.869057 -13.953972 
rtoes -28.696171 
lfemur -20.607106 -3.348368 -26.260183 
ltibia 30.044062 
lfoot -11.066632 0.700730 
ltoes -24.194481 
187
root -7.409075 17.542074 -5.508386 3.817611 2.667772 2.660368
lowerback -10.009464 -0.503229 -3.237208 
upperback 0.216301 -0.234741 -0.883272 
thorax 5.859865 -0.197448 0.863630 
lowerneck -1.831110 -2.296251 2.422057 
upperneck -0.679110 -3.110958 -3.089337 
head 0.006731 -1.567851 -1.369274 
rclavicle 0.000000 0.000000 
rhumerus -51.370983 -17.889809 -75.858298 
rradius 27.468251 
rwrist 33.216008 
rhand -20.177325 -20.840695 
rfingers 0.000000 
rthumb 6.168614 -50.730861 
lclavicle 0.000000 0.000000 
lhumerus -24.933864 25.980605 85.678073 
lradius 31.093940 
lwrist -36.324722 
lhand -21.110890 6.242132 
lfingers 0.000000 
lthumb 5.267257 36.156681 
rfemur -40.318469 -5.314468 16.281217 
rtibia 63.828168 
rfoot -12.282308 -14.320076 
rtoes -28.033923 
lfemur -20.255549 -3.498117 -26.264062 
ltibia 29.915298 
lfoot -11.219071 0.621784 
ltoes -24.356761 
188
root -7.397057 17.553664 -5.438243 3.797403 2.667066 2.582326
lowerback -10.021330 -0.590780 -3.098479 
upperback 0.250197 -0.367710 -0.860468 
thorax 5.906524 -0.259928 0.789232 
lowerneck -1.794242 -2.202701 2.429530 
upperneck -0.661473 -2.985388 -3.127736 
head 0.008973 -1.504943 -1.382041 
rclavicle 0.000000 0.000000 
rhumerus -51.791118 -17.732620 -75.701548 
rradius 27.567090 
rwrist 33.025824 
rhand -20.078661 -20.619692 
rfingers 0.000000 
rthumb 6.263856 -50.507115 
lclavicle 0.000000 0.000000 
lhumerus -24.002420 24.874924 86.433702 
lradius 31.706853 
lwrist -35.125690 
lhand -20.878217 6.091805 
lfingers 0.000000 
lthumb 5.491944 36.000625 
rfemur -41.231342 -5.069253 16.267513 
rtibia 62.598855 
rfoot -12.601614 -14.542732 
rtoes -28.225575 
lfemur -19.867187 -3.465868 -26.232610 
ltibia 29.729127 
lfoot -11.406329 0.565233 
ltoes -24.489735 
189
root -7.383921 17.565427 -5.370547 3.644296 2.773882 2.472247
lowerback -9.835725 -0.703257 -2.977848 
upperback 0.308862 -0.542776 -0.776333 
thorax 5.869544 -0.343847 0.784477 
lowerneck -1.764058 -2.115800 2.494821 
upperneck -0.653792 -2.870260 -3.279288 
head 0.006536 -1.447667 -1.440808 
rclavicle 0.000000 0.000000 
rhumerus -52.190581 -17.566246 -75.426922 
rradius 27.554275 
rwrist 32.957080 
rhand -19.978413 -20.486947 
rfingers 0.000000 
rthumb 6.360632 -50.371369 
lclavicle 0.000000 0.000000 
lhumerus -23.119178 23.551269 87.289492 
lradius 32.410767 
lwrist -33.845010 
lhand -20.781159 6.271603 
lfingers 0.000000 
lthumb 5.585594 36.177963 
rfemur -41.904656 -4.912523 16.260513 
rtibia 61.244329 
rfoot -12.794974 -14.595211 
rtoes -28.057213 
lfemur -19.297374 -3.549288 -26.168978 
ltibia 29.458845 
lfoot -11.517274 0.556545 
ltoes -24.676968 
190
root -7.371269 17.578909 -5.304975 3.610379 2.900297 2.371893
lowerback -9.770189 -0.825622 -2.895280 
upperback 0.347536 -0.722591 -0.682313 
thorax 5.879891 -0.431729 0.810175 
lowerneck -1.785719 -2.055310 2.426686 
upperneck -0.609868 -2.787834 -3.309783 
head 0.026702 -1.406712 -1.439094 
rclavicle 0.000000 0.000000 
rhumerus -52.545952 -17.339544 -75.193134 
rradius 27.605943 
rwrist 32.740765 
rhand -19.943412 -20.254239 
rfingers 0.000000 
rthumb 6.394429 -50.137766 
lclavicle 0.000000 0.000000 
lhumerus -22.252401 22.389662 88.051744 
lradius 33.096792 
lwrist -32.884400 
lhand -20.455835 6.086773 
lfingers 0.000000 
lthumb 5.899736 35.984530 
rfemur -42.695450 -4.696369 16.188308 
rtibia 59.733869 
rfoot -12.845029 -14.683645 
rtoes -28.739350 
lfemur -18.839135 -3.624794 -26.111132 
ltibia 29.122849 
lfoot -11.558758 0.520318 
ltoes -24.762204 
